<?xml version="1.0" encoding="UTF-8" standalone="no"?>
<svg xmlns:xlink="http://www.w3.org/1999/xlink" height="176.65px" width="223.1px" xmlns="http://www.w3.org/2000/svg">
  <g transform="matrix(1.0, 0.0, 0.0, 1.0, 111.55, 88.3)">
    <path d="M68.15 37.85 L70.5 36.75 Q72.65 35.85 74.85 35.6 78.65 35.65 81.05 37.0 83.5 38.35 83.6 38.55 L79.3 53.5 68.15 37.85" fill="#bcbdc3" fill-rule="evenodd" stroke="none"/>
    <path d="M57.65 27.4 L60.05 28.4 64.2 30.3 Q65.95 31.45 66.5 33.5 L67.0 35.8 53.8 42.75 57.65 27.4" fill="#bcbdc3" fill-rule="evenodd" stroke="none"/>
    <path d="M95.45 9.7 Q99.25 17.75 96.55 25.7 93.9 33.65 86.05 37.85 77.95 41.65 70.0 38.95 62.05 36.3 57.85 28.45 54.1 20.35 56.75 12.4 59.4 4.45 67.3 0.25 75.35 -3.5 83.3 -0.85 91.25 1.8 95.45 9.7" fill="#5056a7" fill-rule="evenodd" stroke="none"/>
    <path d="M88.85 9.95 Q91.85 16.4 89.75 22.7 87.6 29.05 81.35 32.4 74.9 35.4 68.55 33.3 62.2 31.15 58.85 24.9 55.85 18.45 57.95 12.1 60.1 5.75 66.35 2.4 72.8 -0.6 79.15 1.5 85.5 3.65 88.85 9.95" fill="#7178e2" fill-rule="evenodd" stroke="none"/>
    <path d="M89.95 34.7 L90.3 31.65 Q90.65 28.8 91.55 26.0 92.7 23.35 95.1 21.45 L97.8 19.4 106.35 34.9 89.95 34.7" fill="#bcbdc3" fill-rule="evenodd" stroke="none"/>
    <path d="M103.95 46.55 Q98.85 56.6 95.2 60.2 87.25 67.1 78.15 66.15 69.1 65.2 64.4 58.35 59.75 51.55 64.95 40.75 67.4 36.15 74.75 28.0 82.1 19.8 91.05 14.3 100.0 8.8 107.3 12.2 113.0 16.15 111.05 26.3 109.05 36.5 103.95 46.55" fill="#ffdd90" fill-rule="evenodd" stroke="none"/>
    <path d="M102.0 43.45 Q106.75 34.55 108.35 28.25 110.0 21.95 110.0 14.9 112.8 20.6 110.2 30.1 107.65 39.65 103.05 48.35 98.45 57.05 95.2 60.2 90.8 64.2 85.7 65.5 L75.75 65.8 Q80.9 64.45 87.95 60.15 95.0 55.85 102.0 43.45" fill="#bc956d" fill-rule="evenodd" stroke="none"/>
    <path d="M3.5 -88.3 Q28.15 -88.0 48.05 -76.25 68.0 -64.45 79.75 -44.55 91.55 -24.65 91.8 0.05 91.55 24.7 79.75 44.6 68.0 64.55 48.05 76.3 28.15 88.1 3.5 88.35 -21.2 88.1 -41.1 76.3 -61.0 64.55 -72.8 44.6 -84.55 24.7 -84.85 0.05 -84.55 -24.65 -72.8 -44.55 -61.0 -64.45 -41.1 -76.25 -21.2 -88.0 3.5 -88.3" fill="#564e8f" fill-rule="evenodd" stroke="none"/>
    <path d="M46.2 -76.2 Q63.95 -65.7 74.45 -48.0 84.95 -30.25 85.2 -8.3 84.95 13.7 74.45 31.4 63.95 49.15 46.2 59.65 28.5 70.15 6.5 70.4 -15.45 70.15 -33.2 59.65 -50.9 49.15 -61.4 31.4 -71.9 13.7 -72.15 -8.3 -71.9 -30.25 -61.4 -48.0 -50.9 -65.7 -33.2 -76.2 -15.45 -86.7 6.5 -86.95 28.5 -86.7 46.2 -76.2" fill="#6f639f" fill-rule="evenodd" stroke="none"/>
    <path d="M2.5 -42.6 L5.9 -27.3 -0.75 -23.3 -15.05 -14.45 Q-23.05 -9.4 -28.5 -5.45 -34.0 -1.3 -42.5 6.0 -51.0 13.25 -58.15 18.7 -65.25 24.1 -66.55 22.7 -68.15 19.35 -66.35 9.95 -64.5 0.55 -58.6 -10.85 -52.7 -22.3 -42.05 -31.7 -31.15 -40.5 -21.0 -42.65 -10.85 -44.75 -4.3 -43.8 L2.5 -42.6" fill="#6f639f" fill-rule="evenodd" stroke="none"/>
    <path d="M5.9 -27.3 L-0.75 -23.3 -15.05 -14.45 Q-23.05 -9.45 -28.5 -5.5 L-42.3 5.8 Q-50.7 13.0 -57.8 18.45 -64.9 23.9 -66.45 22.8 -59.7 14.2 -50.15 5.45 -40.65 -3.3 -32.45 -10.0 -22.45 -18.05 -13.8 -21.75 -5.1 -25.45 0.35 -26.45 L5.9 -27.3" fill="#564e8f" fill-rule="evenodd" stroke="none"/>
    <path d="M-54.55 -1.4 L-49.8 3.9 Q-46.85 7.05 -44.95 8.05 L-53.2 14.85 Q-55.45 13.35 -57.55 10.95 L-61.0 6.65 Q-63.3 4.25 -64.0 1.5 -62.3 -3.55 -59.6 -8.95 -58.6 -6.25 -54.55 -1.4" fill="#d4e4cc" fill-rule="evenodd" stroke="none"/>
    <path d="M-56.8 12.05 L-49.1 4.5 -44.95 8.0 -49.95 12.2 -50.6 12.7 -51.6 13.55 -52.45 14.25 -53.15 14.8 -56.8 12.05" fill="#8b9aa7" fill-rule="evenodd" stroke="none"/>
    <path d="M-100.5 -60.1 Q-93.65 -67.65 -81.15 -74.1 -68.35 -79.85 -56.95 -77.95 -45.5 -76.05 -38.25 -72.1 L-30.8 -67.65 -37.55 -55.3 -46.1 -54.9 -64.25 -53.35 Q-74.3 -52.15 -80.65 -49.8 -86.7 -47.15 -93.6 -43.15 -100.5 -39.15 -105.6 -36.6 -110.7 -34.05 -111.35 -35.8 -112.2 -39.35 -109.8 -45.95 -107.35 -52.55 -100.5 -60.1" fill="#6f639f" fill-rule="evenodd" stroke="none"/>
    <path d="M-110.95 -35.2 Q-100.25 -47.7 -84.0 -55.05 -77.0 -57.75 -66.15 -57.65 L-46.7 -56.5 -37.55 -55.25 -46.1 -54.9 -64.25 -53.3 Q-74.35 -52.15 -80.65 -49.75 -86.3 -47.3 -92.75 -43.6 L-104.25 -37.25 Q-109.35 -34.6 -110.95 -35.2" fill="#564e8f" fill-rule="evenodd" stroke="none"/>
    <path d="M-93.0 -50.7 Q-90.95 -47.2 -89.15 -45.6 L-98.5 -40.35 Q-101.9 -44.35 -103.3 -50.1 -103.9 -52.6 -102.85 -57.4 -99.4 -61.65 -94.35 -65.75 L-95.35 -62.2 Q-95.65 -60.85 -95.45 -57.85 -95.05 -54.15 -93.0 -50.7" fill="#d4e4cc" fill-rule="evenodd" stroke="none"/>
    <path d="M-101.15 -44.4 L-92.65 -50.45 Q-90.7 -46.95 -89.15 -45.6 L-89.2 -45.6 -96.95 -41.3 -98.0 -40.65 -98.55 -40.35 -101.15 -44.4" fill="#8b9aa7" fill-rule="evenodd" stroke="none"/>
  </g>
</svg>
