<?xml version="1.0" encoding="UTF-8" standalone="no"?>
<svg xmlns:xlink="http://www.w3.org/1999/xlink" height="236.85px" width="257.0px" xmlns="http://www.w3.org/2000/svg">
  <g transform="matrix(1.0, 0.0, 0.0, 1.0, 128.5, 118.4)">
    <path d="M-97.4 71.7 Q-100.7 64.8 -103.05 56.65 -105.45 48.45 -105.2 41.7 -104.95 34.95 -100.35 32.5 -92.85 29.65 -84.3 35.75 -75.75 41.85 -69.0 50.55 -62.2 59.2 -60.1 63.95 -55.7 75.05 -60.85 81.55 -66.0 88.05 -75.1 88.4 -84.2 88.7 -91.7 81.25 -94.1 78.55 -97.4 71.7" fill="#ffdd90" fill-rule="evenodd" stroke="none"/>
    <path d="M-91.7 81.25 Q-94.75 77.85 -98.7 68.9 -102.6 60.0 -104.4 50.25 -106.2 40.55 -102.85 34.7 -102.95 40.8 -102.25 45.3 -101.5 49.75 -98.5 55.5 -95.5 61.3 -88.85 71.3 -82.55 80.7 -78.4 83.6 -74.25 86.45 -70.25 87.7 -75.6 89.1 -81.35 87.6 -87.05 86.1 -91.7 81.25" fill="#bc956d" fill-rule="evenodd" stroke="none"/>
    <path d="M71.65 -20.5 Q83.45 -0.6 83.7 24.1 83.45 48.75 71.65 68.65 59.9 88.6 39.95 100.35 20.05 112.15 -4.6 112.4 -29.3 112.15 -49.2 100.35 -69.1 88.6 -80.9 68.65 -92.65 48.75 -92.95 24.1 -92.65 -0.6 -80.9 -20.5 -69.1 -40.4 -49.2 -52.2 -29.3 -63.95 -4.6 -64.25 20.05 -63.95 39.95 -52.2 59.9 -40.4 71.65 -20.5" fill="#564e8f" fill-rule="evenodd" stroke="none"/>
    <path d="M37.4 -52.15 Q55.15 -41.65 65.65 -23.95 76.15 -6.2 76.4 15.75 76.15 37.75 65.65 55.45 55.15 73.2 37.4 83.7 19.7 94.2 -2.3 94.45 -24.25 94.2 -42.0 83.7 -59.7 73.2 -70.2 55.45 -80.7 37.75 -80.95 15.75 -80.7 -6.2 -70.2 -23.95 -59.7 -41.65 -42.0 -52.15 -24.25 -62.65 -2.3 -62.9 19.7 -62.65 37.4 -52.15" fill="#6f639f" fill-rule="evenodd" stroke="none"/>
    <path d="M-25.25 47.4 Q-28.0 59.45 -37.65 65.8 -47.3 72.2 -59.45 70.0 -71.45 67.25 -77.85 57.6 -84.2 47.95 -82.05 35.8 -79.3 23.8 -69.6 17.4 -59.95 11.05 -47.85 13.2 -35.8 15.95 -29.45 25.65 -23.05 35.3 -25.25 47.4" fill="#c8a484" fill-rule="evenodd" stroke="none"/>
    <path d="M-30.1 44.4 Q-32.55 55.05 -41.1 60.7 -49.65 66.35 -60.4 64.4 -71.0 61.95 -76.65 53.4 -82.3 44.85 -80.35 34.15 -77.9 23.5 -69.35 17.85 -60.8 12.2 -50.1 14.15 -39.45 16.6 -33.8 25.15 -28.15 33.7 -30.1 44.4" fill="#edd3bb" fill-rule="evenodd" stroke="none"/>
    <path d="M-65.45 39.2 Q-66.8 45.0 -71.45 48.1 -76.1 51.15 -81.95 50.1 -87.75 48.75 -90.85 44.1 -93.9 39.45 -92.85 33.6 -91.5 27.8 -86.85 24.7 -82.2 21.65 -76.35 22.7 -70.55 24.05 -67.45 28.7 -64.4 33.35 -65.45 39.2" fill="#ffffff" fill-rule="evenodd" stroke="none"/>
    <path d="M-69.55 38.35 Q-70.5 42.4 -73.75 44.6 -77.0 46.75 -81.1 46.0 -85.15 45.05 -87.3 41.8 -89.5 38.55 -88.75 34.45 -87.8 30.4 -84.55 28.25 -81.3 26.05 -77.2 26.8 -73.15 27.75 -70.95 31.0 -68.8 34.25 -69.55 38.35" fill="#5964c8" fill-rule="evenodd" stroke="none"/>
    <path d="M-16.45 49.25 Q-17.8 55.05 -22.45 58.15 -27.1 61.2 -32.95 60.15 -38.75 58.8 -41.85 54.15 -44.9 49.5 -43.85 43.65 -42.5 37.85 -37.85 34.75 -33.2 31.7 -27.35 32.75 -21.55 34.1 -18.45 38.75 -15.4 43.4 -16.45 49.25" fill="#ffffff" fill-rule="evenodd" stroke="none"/>
    <path d="M-20.55 48.4 Q-21.5 52.45 -24.75 54.65 -28.0 56.8 -32.1 56.05 -36.15 55.1 -38.3 51.85 -40.5 48.6 -39.75 44.5 -38.8 40.45 -35.55 38.3 -32.3 36.1 -28.2 36.85 -24.15 37.8 -21.95 41.05 -19.8 44.3 -20.55 48.4" fill="#5964c8" fill-rule="evenodd" stroke="none"/>
    <path d="M-51.15 64.8 Q-56.25 63.25 -57.5 59.8 L-58.0 58.5 -58.9 59.5 Q-61.25 62.2 -66.05 61.75 -70.6 60.3 -71.7 56.9 -72.75 53.55 -72.6 53.1 -72.55 52.15 -71.65 52.05 -70.75 52.1 -70.6 53.0 L-70.5 53.9 -69.85 56.1 Q-68.95 58.8 -65.65 59.8 -63.05 60.2 -61.35 58.9 -59.6 57.6 -58.85 56.3 L-58.4 55.5 Q-58.05 54.85 -57.3 54.95 -56.55 55.15 -56.5 55.9 L-56.35 56.8 -55.7 58.95 Q-54.75 61.65 -50.75 62.85 -47.7 63.3 -46.1 62.0 -44.5 60.75 -43.9 59.45 L-43.55 58.65 Q-43.2 57.85 -42.3 58.05 -41.45 58.4 -41.65 59.3 -41.6 59.85 -43.7 62.55 -45.85 65.35 -51.1 64.8 L-51.15 64.8" fill="#000000" fill-rule="evenodd" stroke="none"/>
    <path d="M-25.05 97.7 Q-22.7 97.8 -20.65 98.6 -17.3 100.3 -15.7 102.6 -14.15 104.9 -14.15 105.1 L-24.65 116.6 -27.65 97.6 -25.05 97.7" fill="#bcbdc3" fill-rule="evenodd" stroke="none"/>
    <path d="M-32.4 83.55 L-30.75 85.5 -27.85 89.1 Q-26.8 90.9 -27.2 93.0 L-27.8 95.25 -42.7 95.55 -32.4 83.55" fill="#bcbdc3" fill-rule="evenodd" stroke="none"/>
    <path d="M3.2 69.75 Q9.1 75.7 9.35 84.6 9.1 93.5 3.2 99.45 -2.75 105.35 -11.65 105.6 -20.55 105.35 -26.5 99.45 -32.4 93.5 -32.65 84.6 -32.4 75.7 -26.5 69.75 -20.55 63.85 -11.65 63.6 -2.75 63.85 3.2 69.75" fill="#5056a7" fill-rule="evenodd" stroke="none"/>
    <path d="M3.35 81.85 Q3.15 88.95 -1.55 93.7 -6.3 98.4 -13.4 98.6 -20.5 98.4 -25.25 93.7 -29.95 88.95 -30.15 81.85 -29.95 74.75 -25.25 70.0 -20.5 65.3 -13.4 65.1 -6.3 65.3 -1.55 70.0 3.15 74.75 3.35 81.85" fill="#7178e2" fill-rule="evenodd" stroke="none"/>
    <path d="M-6.75 104.5 L-5.05 101.9 Q-3.5 99.5 -1.45 97.4 0.8 95.55 3.8 94.9 L7.1 94.3 7.85 111.95 -6.75 104.5" fill="#bcbdc3" fill-rule="evenodd" stroke="none"/>
    <path d="M-110.85 80.05 Q-108.5 80.15 -106.45 80.95 -103.1 82.65 -101.5 84.95 -99.95 87.25 -99.95 87.45 L-110.45 98.95 -113.45 79.95 -110.85 80.05" fill="#bcbdc3" fill-rule="evenodd" stroke="none"/>
    <path d="M-118.2 65.9 L-116.55 67.85 -113.65 71.45 Q-112.6 73.25 -113.0 75.35 -113.45 77.45 -113.6 77.6 L-128.5 77.9 -118.2 65.9" fill="#bcbdc3" fill-rule="evenodd" stroke="none"/>
    <path d="M-82.6 52.1 Q-76.7 58.05 -76.45 66.95 -76.7 75.85 -82.6 81.8 -88.55 87.7 -97.45 87.95 -106.35 87.7 -112.3 81.8 -118.2 75.85 -118.45 66.95 -118.2 58.05 -112.3 52.1 -106.35 46.2 -97.45 45.95 -88.55 46.2 -82.6 52.1" fill="#5056a7" fill-rule="evenodd" stroke="none"/>
    <path d="M-82.45 64.2 Q-82.65 71.3 -87.35 76.05 -92.1 80.75 -99.2 80.95 -106.3 80.75 -111.05 76.05 -115.75 71.3 -115.95 64.2 -115.75 57.1 -111.05 52.35 -106.3 47.65 -99.2 47.45 -92.1 47.65 -87.35 52.35 -82.65 57.1 -82.45 64.2" fill="#7178e2" fill-rule="evenodd" stroke="none"/>
    <path d="M-92.55 86.9 L-90.85 84.3 Q-89.3 81.9 -87.25 79.8 -85.0 77.95 -82.0 77.3 L-78.7 76.7 -77.95 94.35 -92.55 86.9" fill="#bcbdc3" fill-rule="evenodd" stroke="none"/>
    <path d="M51.35 82.9 Q50.15 91.35 47.85 98.6 45.6 105.85 43.55 108.9 37.2 117.3 28.15 118.3 19.1 119.25 13.1 113.55 7.05 107.85 9.85 96.2 10.85 92.65 14.3 86.05 17.75 79.45 22.75 72.7 27.8 66.0 33.65 61.95 39.45 57.9 45.25 59.4 50.15 61.2 51.35 67.85 52.55 74.45 51.35 82.9" fill="#ffdd90" fill-rule="evenodd" stroke="none"/>
    <path d="M43.6 108.9 Q39.7 114.35 34.25 116.65 28.75 118.95 23.3 118.3 17.8 115.15 16.55 109.0 15.35 102.85 20.2 92.3 27.85 75.65 34.2 67.9 40.5 60.15 48.05 61.25 52.2 66.55 51.8 76.4 51.4 86.3 48.75 95.7 46.15 105.05 43.6 108.9" fill="#bc956d" fill-rule="evenodd" stroke="none"/>
    <path d="M24.2 -37.55 Q24.05 -37.95 27.05 -44.9 30.05 -51.8 38.15 -60.35 46.2 -68.9 61.2 -74.25 76.65 -78.9 91.2 -77.85 105.75 -76.8 115.95 -72.95 126.15 -69.15 128.45 -65.55 129.1 -64.05 123.55 -61.55 118.0 -59.05 109.4 -56.1 L92.35 -50.4 78.6 -45.55 Q71.5 -42.6 61.9 -37.85 L44.8 -29.25 37.0 -25.2 24.2 -37.55" fill="#6f639f" fill-rule="evenodd" stroke="none"/>
    <path d="M61.9 -37.8 L44.8 -29.25 37.0 -25.15 Q36.95 -25.4 41.15 -30.05 45.35 -34.7 54.1 -40.95 62.85 -47.15 76.55 -52.05 87.9 -55.95 102.05 -59.95 116.15 -64.0 128.5 -65.4 128.8 -63.85 123.15 -61.35 117.55 -58.85 109.05 -55.95 L92.15 -50.3 Q83.8 -47.55 78.6 -45.5 71.5 -42.55 61.9 -37.8" fill="#564e8f" fill-rule="evenodd" stroke="none"/>
    <path d="M97.95 -68.3 L95.75 -74.0 93.65 -77.65 Q100.45 -77.05 106.4 -75.7 108.6 -73.4 109.6 -69.75 110.65 -67.3 111.7 -63.85 112.75 -60.4 112.85 -57.3 L101.4 -53.4 Q101.6 -55.8 100.3 -60.55 L97.95 -68.3" fill="#d4e4cc" fill-rule="evenodd" stroke="none"/>
    <path d="M112.3 -62.5 L112.85 -57.35 111.9 -57.0 110.7 -56.55 109.3 -56.05 108.4 -55.8 101.35 -53.4 100.45 -59.5 112.3 -62.5" fill="#8b9aa7" fill-rule="evenodd" stroke="none"/>
    <path d="M3.85 -65.95 Q0.35 -58.15 -2.75 -53.0 L-6.05 -47.6 -21.15 -49.35 -23.5 -56.5 Q-25.65 -63.35 -26.95 -72.95 -28.25 -82.6 -26.0 -91.25 -21.9 -104.5 -15.35 -112.05 -8.75 -119.6 -2.55 -118.2 3.45 -116.05 7.05 -105.45 10.65 -94.85 8.85 -81.7 7.4 -73.7 3.85 -65.95" fill="#6f639f" fill-rule="evenodd" stroke="none"/>
    <path d="M1.75 -73.25 Q4.2 -83.5 4.1 -92.1 3.9 -98.0 2.8 -105.35 1.7 -112.65 -0.65 -117.3 4.65 -113.75 7.6 -103.7 10.55 -93.65 8.9 -81.7 7.6 -74.65 4.65 -67.65 1.65 -60.65 -1.35 -55.4 L-6.0 -47.6 -3.25 -55.5 Q-0.7 -63.0 1.75 -73.25" fill="#564e8f" fill-rule="evenodd" stroke="none"/>
    <path d="M5.8 -108.8 Q7.85 -104.15 8.85 -98.2 0.1 -102.15 -9.6 -103.75 -16.7 -104.65 -20.9 -103.75 -17.85 -109.45 -14.25 -113.15 -11.2 -113.5 -7.75 -113.1 -1.1 -112.05 5.8 -108.8" fill="#d4e4cc" fill-rule="evenodd" stroke="none"/>
    <path d="M6.65 -106.65 L6.8 -106.3 7.1 -105.35 7.2 -105.1 Q8.2 -101.9 8.85 -98.25 L3.5 -100.35 Q2.95 -105.6 1.8 -110.5 L5.8 -108.8 5.9 -108.6 6.2 -107.9 6.35 -107.45 6.65 -106.65" fill="#8b9aa7" fill-rule="evenodd" stroke="none"/>
  </g>
</svg>
